<svg id="visual" viewBox="0 0 960 540" width="960" height="540" xmlns="http://www.w3.org/2000/svg" xmlns:xlink="http://www.w3.org/1999/xlink" version="1.1"><g stroke-width="1" stroke-linejoin="bevel"><path d="M460.7 308L456.7 345L545.3 337Z" fill="#d4e0e7" stroke="#d4e0e7"></path><path d="M545.3 337L568.3 233L460.7 308Z" fill="#d1dde4" stroke="#d1dde4"></path><path d="M601 320L568.3 233L545.3 337Z" fill="#ccdbe1" stroke="#ccdbe1"></path><path d="M310 358L414.7 453L456.7 345Z" fill="#d7e1e8" stroke="#d7e1e8"></path><path d="M456.7 345L566.3 473L545.3 337Z" fill="#d6e0e7" stroke="#d6e0e7"></path><path d="M545.3 337L614 456L601 320Z" fill="#d0dde3" stroke="#d0dde3"></path><path d="M414.7 453L566.3 473L456.7 345Z" fill="#d6e0e7" stroke="#d6e0e7"></path><path d="M568.3 233L432.7 189L460.7 308Z" fill="#d0dde3" stroke="#d0dde3"></path><path d="M460.7 308L310 358L456.7 345Z" fill="#d7e1e8" stroke="#d7e1e8"></path><path d="M566.3 473L614 456L545.3 337Z" fill="#d4e0e7" stroke="#d4e0e7"></path><path d="M638 173L561.3 172L568.3 233Z" fill="#d4e0e7" stroke="#d4e0e7"></path><path d="M568.3 233L561.3 172L432.7 189Z" fill="#cedce3" stroke="#cedce3"></path><path d="M300 264L310 358L460.7 308Z" fill="#d7e1e8" stroke="#d7e1e8"></path><path d="M709.7 286L679 252L601 320Z" fill="#d3dfe6" stroke="#d3dfe6"></path><path d="M601 320L679 252L568.3 233Z" fill="#d7e1e8" stroke="#d7e1e8"></path><path d="M432.7 189L325 218L460.7 308Z" fill="#d7e1e8" stroke="#d7e1e8"></path><path d="M679 252L638 173L568.3 233Z" fill="#d2dee5" stroke="#d2dee5"></path><path d="M325 218L300 264L460.7 308Z" fill="#d8e2e9" stroke="#d8e2e9"></path><path d="M721.7 387L709.7 286L601 320Z" fill="#d1dde4" stroke="#d1dde4"></path><path d="M679 252L735.7 215L638 173Z" fill="#cedce3" stroke="#cedce3"></path><path d="M414.7 453L553.3 540L566.3 473Z" fill="#cedce3" stroke="#cedce3"></path><path d="M566.3 473L651 540L614 456Z" fill="#d2dee5" stroke="#d2dee5"></path><path d="M182.3 343L297 429L310 358Z" fill="#ccdbe1" stroke="#ccdbe1"></path><path d="M310 358L297 429L414.7 453Z" fill="#d6e0e7" stroke="#d6e0e7"></path><path d="M414.7 453L399.7 540L553.3 540Z" fill="#d1dde4" stroke="#d1dde4"></path><path d="M624 88L535.3 107L561.3 172Z" fill="#d4e0e7" stroke="#d4e0e7"></path><path d="M561.3 172L535.3 107L432.7 189Z" fill="#ccdbe1" stroke="#ccdbe1"></path><path d="M432.7 189L348 68L325 218Z" fill="#d7e1e8" stroke="#d7e1e8"></path><path d="M614 456L721.7 387L601 320Z" fill="#cddce2" stroke="#cddce2"></path><path d="M740.7 445L721.7 387L614 456Z" fill="#d3dfe6" stroke="#d3dfe6"></path><path d="M296 540L399.7 540L414.7 453Z" fill="#d3dfe6" stroke="#d3dfe6"></path><path d="M535.3 107L462.7 79L432.7 189Z" fill="#d1dde4" stroke="#d1dde4"></path><path d="M553.3 540L651 540L566.3 473Z" fill="#d2dee5" stroke="#d2dee5"></path><path d="M709.7 286L735.7 215L679 252Z" fill="#d4e0e7" stroke="#d4e0e7"></path><path d="M638 173L624 88L561.3 172Z" fill="#ccdbe1" stroke="#ccdbe1"></path><path d="M856.3 284L735.7 215L709.7 286Z" fill="#d7e1e8" stroke="#d7e1e8"></path><path d="M651 540L740.7 445L614 456Z" fill="#d2dee5" stroke="#d2dee5"></path><path d="M721.7 387L829.3 373L709.7 286Z" fill="#d8e2e9" stroke="#d8e2e9"></path><path d="M730.7 66L624 88L638 173Z" fill="#cddce2" stroke="#cddce2"></path><path d="M535.3 107L512.3 0L462.7 79Z" fill="#d7e1e8" stroke="#d7e1e8"></path><path d="M185.3 183L222.3 288L300 264Z" fill="#d6e0e7" stroke="#d6e0e7"></path><path d="M300 264L222.3 288L310 358Z" fill="#d7e1e8" stroke="#d7e1e8"></path><path d="M185.3 183L300 264L325 218Z" fill="#d2dee5" stroke="#d2dee5"></path><path d="M297 429L296 540L414.7 453Z" fill="#d7e1e8" stroke="#d7e1e8"></path><path d="M182.3 481L296 540L297 429Z" fill="#d0dde3" stroke="#d0dde3"></path><path d="M651 540L715.7 540L740.7 445Z" fill="#d7e1e8" stroke="#d7e1e8"></path><path d="M413.7 0L348 68L462.7 79Z" fill="#d3dfe6" stroke="#d3dfe6"></path><path d="M462.7 79L348 68L432.7 189Z" fill="#d7e1e8" stroke="#d7e1e8"></path><path d="M95.7 265L182.3 343L222.3 288Z" fill="#d2dee5" stroke="#d2dee5"></path><path d="M222.3 288L182.3 343L310 358Z" fill="#ccdbe1" stroke="#ccdbe1"></path><path d="M602 0L512.3 0L535.3 107Z" fill="#cddce2" stroke="#cddce2"></path><path d="M882.3 434L829.3 373L740.7 445Z" fill="#d2dee5" stroke="#d2dee5"></path><path d="M740.7 445L829.3 373L721.7 387Z" fill="#d2dee5" stroke="#d2dee5"></path><path d="M512.3 0L413.7 0L462.7 79Z" fill="#d2dee5" stroke="#d2dee5"></path><path d="M624 88L602 0L535.3 107Z" fill="#d6e0e7" stroke="#d6e0e7"></path><path d="M730.7 66L602 0L624 88Z" fill="#d1dde4" stroke="#d1dde4"></path><path d="M189.3 109L325 218L348 68Z" fill="#d1dde4" stroke="#d1dde4"></path><path d="M189.3 109L185.3 183L325 218Z" fill="#d8e2e9" stroke="#d8e2e9"></path><path d="M873.3 157L730.7 66L735.7 215Z" fill="#d4e0e7" stroke="#d4e0e7"></path><path d="M735.7 215L730.7 66L638 173Z" fill="#d4e0e7" stroke="#d4e0e7"></path><path d="M182.3 343L182.3 481L297 429Z" fill="#d1dde4" stroke="#d1dde4"></path><path d="M829.3 373L856.3 284L709.7 286Z" fill="#cddce2" stroke="#cddce2"></path><path d="M95.7 265L140.7 367L182.3 343Z" fill="#cddce2" stroke="#cddce2"></path><path d="M182.3 343L142.7 442L182.3 481Z" fill="#d6e0e7" stroke="#d6e0e7"></path><path d="M413.7 0L350 0L348 68Z" fill="#d6e0e7" stroke="#d6e0e7"></path><path d="M71.7 540L197.3 540L182.3 481Z" fill="#d8e2e9" stroke="#d8e2e9"></path><path d="M182.3 481L197.3 540L296 540Z" fill="#d3dfe6" stroke="#d3dfe6"></path><path d="M140.7 367L142.7 442L182.3 343Z" fill="#d4e0e7" stroke="#d4e0e7"></path><path d="M173.3 0L189.3 109L348 68Z" fill="#d8e2e9" stroke="#d8e2e9"></path><path d="M185.3 183L95.7 265L222.3 288Z" fill="#cddce2" stroke="#cddce2"></path><path d="M886.3 540L882.3 434L740.7 445Z" fill="#d1dde4" stroke="#d1dde4"></path><path d="M829.3 373L960 320L856.3 284Z" fill="#d4e0e7" stroke="#d4e0e7"></path><path d="M108.7 189L95.7 265L185.3 183Z" fill="#d0dde3" stroke="#d0dde3"></path><path d="M0 480L71.7 540L142.7 442Z" fill="#cedce3" stroke="#cedce3"></path><path d="M817.3 52L742.7 0L730.7 66Z" fill="#d7e1e8" stroke="#d7e1e8"></path><path d="M730.7 66L742.7 0L602 0Z" fill="#d0dde3" stroke="#d0dde3"></path><path d="M856.3 284L873.3 157L735.7 215Z" fill="#cddce2" stroke="#cddce2"></path><path d="M960 203L873.3 157L856.3 284Z" fill="#d1dde4" stroke="#d1dde4"></path><path d="M189.3 109L108.7 189L185.3 183Z" fill="#cddce2" stroke="#cddce2"></path><path d="M873.3 157L817.3 52L730.7 66Z" fill="#d4e0e7" stroke="#d4e0e7"></path><path d="M715.7 540L886.3 540L740.7 445Z" fill="#d0dde3" stroke="#d0dde3"></path><path d="M882.3 434L960 320L829.3 373Z" fill="#d2dee5" stroke="#d2dee5"></path><path d="M960 414L960 320L882.3 434Z" fill="#d4e0e7" stroke="#d4e0e7"></path><path d="M960 320L960 282L856.3 284Z" fill="#d2dee5" stroke="#d2dee5"></path><path d="M960 98L860.3 0L817.3 52Z" fill="#d1dde4" stroke="#d1dde4"></path><path d="M350 0L173.3 0L348 68Z" fill="#d4e0e7" stroke="#d4e0e7"></path><path d="M189.3 109L87.7 113L108.7 189Z" fill="#ccdbe1" stroke="#ccdbe1"></path><path d="M173.3 0L87.7 113L189.3 109Z" fill="#cddce2" stroke="#cddce2"></path><path d="M0 197L0 264L95.7 265Z" fill="#d0dde3" stroke="#d0dde3"></path><path d="M960 540L960 414L882.3 434Z" fill="#d2dee5" stroke="#d2dee5"></path><path d="M0 390L140.7 367L95.7 265Z" fill="#cedce3" stroke="#cedce3"></path><path d="M0 390L142.7 442L140.7 367Z" fill="#d2dee5" stroke="#d2dee5"></path><path d="M142.7 442L71.7 540L182.3 481Z" fill="#d6e0e7" stroke="#d6e0e7"></path><path d="M960 282L960 203L856.3 284Z" fill="#ccdbe1" stroke="#ccdbe1"></path><path d="M960 98L817.3 52L873.3 157Z" fill="#d7e1e8" stroke="#d7e1e8"></path><path d="M817.3 52L860.3 0L742.7 0Z" fill="#d1dde4" stroke="#d1dde4"></path><path d="M0 264L0 390L95.7 265Z" fill="#d8e2e9" stroke="#d8e2e9"></path><path d="M0 197L95.7 265L108.7 189Z" fill="#d0dde3" stroke="#d0dde3"></path><path d="M886.3 540L960 540L882.3 434Z" fill="#d2dee5" stroke="#d2dee5"></path><path d="M960 203L960 98L873.3 157Z" fill="#d7e1e8" stroke="#d7e1e8"></path><path d="M0 91L0 197L87.7 113Z" fill="#d3dfe6" stroke="#d3dfe6"></path><path d="M87.7 113L0 197L108.7 189Z" fill="#d7e1e8" stroke="#d7e1e8"></path><path d="M0 390L0 480L142.7 442Z" fill="#cedce3" stroke="#cedce3"></path><path d="M173.3 0L76.7 0L87.7 113Z" fill="#d6e0e7" stroke="#d6e0e7"></path><path d="M0 480L0 540L71.7 540Z" fill="#d6e0e7" stroke="#d6e0e7"></path><path d="M76.7 0L0 91L87.7 113Z" fill="#d0dde3" stroke="#d0dde3"></path><path d="M960 98L960 0L860.3 0Z" fill="#cedce3" stroke="#cedce3"></path><path d="M76.7 0L0 0L0 91Z" fill="#d1dde4" stroke="#d1dde4"></path></g></svg>