<svg id="visual" viewBox="0 0 960 540" width="960" height="540" xmlns="http://www.w3.org/2000/svg" xmlns:xlink="http://www.w3.org/1999/xlink" version="1.1"><rect width="960" height="540" fill="#ebf1f4"></rect><g><g transform="translate(177 199)"><path d="M0 -23.7L20.5 -11.8L20.5 11.8L0 23.7L-20.5 11.8L-20.5 -11.8Z" fill="#c3d2d8"></path></g><g transform="translate(861 158)"><path d="M0 -6L5.2 -3L5.2 3L0 6L-5.2 3L-5.2 -3Z" fill="#c3d2d8"></path></g><g transform="translate(377 321)"><path d="M0 -9L7.8 -4.5L7.8 4.5L0 9L-7.8 4.5L-7.8 -4.5Z" fill="#c3d2d8"></path></g><g transform="translate(373 168)"><path d="M0 -9L7.8 -4.5L7.8 4.5L0 9L-7.8 4.5L-7.8 -4.5Z" fill="#c3d2d8"></path></g><g transform="translate(33 244)"><path d="M0 -15L13 -7.5L13 7.5L0 15L-13 7.5L-13 -7.5Z" fill="#c3d2d8"></path></g><g transform="translate(297 436)"><path d="M0 -18L15.6 -9L15.6 9L0 18L-15.6 9L-15.6 -9Z" fill="#c3d2d8"></path></g><g transform="translate(332 283)"><path d="M0 -10L8.7 -5L8.7 5L0 10L-8.7 5L-8.7 -5Z" fill="#c3d2d8"></path></g><g transform="translate(954 365)"><path d="M0 -18L15.6 -9L15.6 9L0 18L-15.6 9L-15.6 -9Z" fill="#c3d2d8"></path></g><g transform="translate(189 250)"><path d="M0 -19L16.5 -9.5L16.5 9.5L0 19L-16.5 9.5L-16.5 -9.5Z" fill="#c3d2d8"></path></g><g transform="translate(58 96)"><path d="M0 -18L15.6 -9L15.6 9L0 18L-15.6 9L-15.6 -9Z" fill="#c3d2d8"></path></g><g transform="translate(455 252)"><path d="M0 -9L7.8 -4.5L7.8 4.5L0 9L-7.8 4.5L-7.8 -4.5Z" fill="#c3d2d8"></path></g><g transform="translate(952 253)"><path d="M0 -13L11.3 -6.5L11.3 6.5L0 13L-11.3 6.5L-11.3 -6.5Z" fill="#c3d2d8"></path></g><g transform="translate(210 501)"><path d="M0 -16L13.9 -8L13.9 8L0 16L-13.9 8L-13.9 -8Z" fill="#c3d2d8"></path></g><g transform="translate(544 279)"><path d="M0 -12L10.4 -6L10.4 6L0 12L-10.4 6L-10.4 -6Z" fill="#c3d2d8"></path></g><g transform="translate(125 43)"><path d="M0 -20L17.3 -10L17.3 10L0 20L-17.3 10L-17.3 -10Z" fill="#c3d2d8"></path></g><g transform="translate(939 50)"><path d="M0 -22L19.1 -11L19.1 11L0 22L-19.1 11L-19.1 -11Z" fill="#c3d2d8"></path></g><g transform="translate(840 33)"><path d="M0 -4L3.5 -2L3.5 2L0 4L-3.5 2L-3.5 -2Z" fill="#c3d2d8"></path></g><g transform="translate(97 216)"><path d="M0 -14L12.1 -7L12.1 7L0 14L-12.1 7L-12.1 -7Z" fill="#c3d2d8"></path></g><g transform="translate(264 145)"><path d="M0 -11L9.5 -5.5L9.5 5.5L0 11L-9.5 5.5L-9.5 -5.5Z" fill="#c3d2d8"></path></g><g transform="translate(547 454)"><path d="M0 -18L15.6 -9L15.6 9L0 18L-15.6 9L-15.6 -9Z" fill="#c3d2d8"></path></g><g transform="translate(338 410)"><path d="M0 -22L19.1 -11L19.1 11L0 22L-19.1 11L-19.1 -11Z" fill="#c3d2d8"></path></g><g transform="translate(116 145)"><path d="M0 -14L12.1 -7L12.1 7L0 14L-12.1 7L-12.1 -7Z" fill="#c3d2d8"></path></g><g transform="translate(853 315)"><path d="M0 -11L9.5 -5.5L9.5 5.5L0 11L-9.5 5.5L-9.5 -5.5Z" fill="#c3d2d8"></path></g><g transform="translate(883 460)"><path d="M0 -19L16.5 -9.5L16.5 9.5L0 19L-16.5 9.5L-16.5 -9.5Z" fill="#c3d2d8"></path></g><g transform="translate(903 236)"><path d="M0 -13L11.3 -6.5L11.3 6.5L0 13L-11.3 6.5L-11.3 -6.5Z" fill="#c3d2d8"></path></g><g transform="translate(341 475)"><path d="M0 -11L9.5 -5.5L9.5 5.5L0 11L-9.5 5.5L-9.5 -5.5Z" fill="#c3d2d8"></path></g><g transform="translate(824 522)"><path d="M0 -18L15.6 -9L15.6 9L0 18L-15.6 9L-15.6 -9Z" fill="#c3d2d8"></path></g><g transform="translate(621 420)"><path d="M0 -3L2.6 -1.5L2.6 1.5L0 3L-2.6 1.5L-2.6 -1.5Z" fill="#c3d2d8"></path></g><g transform="translate(116 271)"><path d="M0 -12L10.4 -6L10.4 6L0 12L-10.4 6L-10.4 -6Z" fill="#c3d2d8"></path></g><g transform="translate(51 442)"><path d="M0 -6L5.2 -3L5.2 3L0 6L-5.2 3L-5.2 -3Z" fill="#c3d2d8"></path></g><g transform="translate(540 166)"><path d="M0 -6L5.2 -3L5.2 3L0 6L-5.2 3L-5.2 -3Z" fill="#c3d2d8"></path></g><g transform="translate(707 508)"><path d="M0 -8L6.9 -4L6.9 4L0 8L-6.9 4L-6.9 -4Z" fill="#c3d2d8"></path></g><g transform="translate(487 324)"><path d="M0 -6L5.2 -3L5.2 3L0 6L-5.2 3L-5.2 -3Z" fill="#c3d2d8"></path></g><g transform="translate(140 313)"><path d="M0 -17L14.7 -8.5L14.7 8.5L0 17L-14.7 8.5L-14.7 -8.5Z" fill="#c3d2d8"></path></g><g transform="translate(621 487)"><path d="M0 -18L15.6 -9L15.6 9L0 18L-15.6 9L-15.6 -9Z" fill="#c3d2d8"></path></g><g transform="translate(800 355)"><path d="M0 -8L6.9 -4L6.9 4L0 8L-6.9 4L-6.9 -4Z" fill="#c3d2d8"></path></g><g transform="translate(546 100)"><path d="M0 -14L12.1 -7L12.1 7L0 14L-12.1 7L-12.1 -7Z" fill="#c3d2d8"></path></g><g transform="translate(407 474)"><path d="M0 -11L9.5 -5.5L9.5 5.5L0 11L-9.5 5.5L-9.5 -5.5Z" fill="#c3d2d8"></path></g><g transform="translate(323 340)"><path d="M0 -8L6.9 -4L6.9 4L0 8L-6.9 4L-6.9 -4Z" fill="#c3d2d8"></path></g><g transform="translate(507 204)"><path d="M0 -10L8.7 -5L8.7 5L0 10L-8.7 5L-8.7 -5Z" fill="#c3d2d8"></path></g><g transform="translate(626 304)"><path d="M0 -22L19.1 -11L19.1 11L0 22L-19.1 11L-19.1 -11Z" fill="#c3d2d8"></path></g><g transform="translate(715 325)"><path d="M0 -12L10.4 -6L10.4 6L0 12L-10.4 6L-10.4 -6Z" fill="#c3d2d8"></path></g><g transform="translate(926 506)"><path d="M0 -21L18.2 -10.5L18.2 10.5L0 21L-18.2 10.5L-18.2 -10.5Z" fill="#c3d2d8"></path></g><g transform="translate(700 459)"><path d="M0 -16L13.9 -8L13.9 8L0 16L-13.9 8L-13.9 -8Z" fill="#c3d2d8"></path></g><g transform="translate(762 519)"><path d="M0 -16L13.9 -8L13.9 8L0 16L-13.9 8L-13.9 -8Z" fill="#c3d2d8"></path></g><g transform="translate(13 471)"><path d="M0 -2L1.7 -1L1.7 1L0 2L-1.7 1L-1.7 -1Z" fill="#c3d2d8"></path></g><g transform="translate(271 36)"><path d="M0 -9L7.8 -4.5L7.8 4.5L0 9L-7.8 4.5L-7.8 -4.5Z" fill="#c3d2d8"></path></g><g transform="translate(441 338)"><path d="M0 -3L2.6 -1.5L2.6 1.5L0 3L-2.6 1.5L-2.6 -1.5Z" fill="#c3d2d8"></path></g><g transform="translate(24 323)"><path d="M0 -10L8.7 -5L8.7 5L0 10L-8.7 5L-8.7 -5Z" fill="#c3d2d8"></path></g><g transform="translate(841 416)"><path d="M0 -3L2.6 -1.5L2.6 1.5L0 3L-2.6 1.5L-2.6 -1.5Z" fill="#c3d2d8"></path></g><g transform="translate(682 57)"><path d="M0 -4L3.5 -2L3.5 2L0 4L-3.5 2L-3.5 -2Z" fill="#c3d2d8"></path></g><g transform="translate(938 189)"><path d="M0 -21L18.2 -10.5L18.2 10.5L0 21L-18.2 10.5L-18.2 -10.5Z" fill="#c3d2d8"></path></g><g transform="translate(401 100)"><path d="M0 -18L15.6 -9L15.6 9L0 18L-15.6 9L-15.6 -9Z" fill="#c3d2d8"></path></g><g transform="translate(572 335)"><path d="M0 -3L2.6 -1.5L2.6 1.5L0 3L-2.6 1.5L-2.6 -1.5Z" fill="#c3d2d8"></path></g><g transform="translate(684 160)"><path d="M0 -3L2.6 -1.5L2.6 1.5L0 3L-2.6 1.5L-2.6 -1.5Z" fill="#c3d2d8"></path></g><g transform="translate(737 270)"><path d="M0 -10L8.7 -5L8.7 5L0 10L-8.7 5L-8.7 -5Z" fill="#c3d2d8"></path></g><g transform="translate(477 475)"><path d="M0 -13L11.3 -6.5L11.3 6.5L0 13L-11.3 6.5L-11.3 -6.5Z" fill="#c3d2d8"></path></g><g transform="translate(620 201)"><path d="M0 -8L6.9 -4L6.9 4L0 8L-6.9 4L-6.9 -4Z" fill="#c3d2d8"></path></g></g></svg>