<svg id="visual" viewBox="0 0 960 540" width="960" height="540" xmlns="http://www.w3.org/2000/svg" xmlns:xlink="http://www.w3.org/1999/xlink" version="1.1"><path d="M0 77L14.5 98.5C29 120 58 163 87.2 187.2C116.3 211.3 145.7 216.7 174.8 214C204 211.3 233 200.7 262 189C291 177.3 320 164.7 349 146.7C378 128.7 407 105.3 436.2 118.8C465.3 132.3 494.7 182.7 523.8 187.2C553 191.7 582 150.3 611 137.8C640 125.3 669 141.7 698 148C727 154.3 756 150.7 785.2 146.2C814.3 141.7 843.7 136.3 872.8 139C902 141.7 931 152.3 945.5 157.7L960 163L960 0L945.5 0C931 0 902 0 872.8 0C843.7 0 814.3 0 785.2 0C756 0 727 0 698 0C669 0 640 0 611 0C582 0 553 0 523.8 0C494.7 0 465.3 0 436.2 0C407 0 378 0 349 0C320 0 291 0 262 0C233 0 204 0 174.8 0C145.7 0 116.3 0 87.2 0C58 0 29 0 14.5 0L0 0Z" fill="#e4e8ee"></path><path d="M0 212L14.5 218.2C29 224.3 58 236.7 87.2 246.5C116.3 256.3 145.7 263.7 174.8 263.7C204 263.7 233 256.3 262 246.5C291 236.7 320 224.3 349 209.2C378 194 407 176 436.2 194C465.3 212 494.7 266 523.8 267.7C553 269.3 582 218.7 611 211.3C640 204 669 240 698 248.2C727 256.3 756 236.7 785.2 227.7C814.3 218.7 843.7 220.3 872.8 224C902 227.7 931 233.3 945.5 236.2L960 239L960 161L945.5 155.7C931 150.3 902 139.7 872.8 137C843.7 134.3 814.3 139.7 785.2 144.2C756 148.7 727 152.3 698 146C669 139.7 640 123.3 611 135.8C582 148.3 553 189.7 523.8 185.2C494.7 180.7 465.3 130.3 436.2 116.8C407 103.3 378 126.7 349 144.7C320 162.7 291 175.3 262 187C233 198.7 204 209.3 174.8 212C145.7 214.7 116.3 209.3 87.2 185.2C58 161 29 118 14.5 96.5L0 75Z" fill="#dde2ea"></path><path d="M0 287L14.5 297C29 307 58 327 87.2 332.5C116.3 338 145.7 329 174.8 330.7C204 332.3 233 344.7 262 332.8C291 321 320 285 349 263.5C378 242 407 235 436.2 255.8C465.3 276.7 494.7 325.3 523.8 332.5C553 339.7 582 305.3 611 305.3C640 305.3 669 339.7 698 339.7C727 339.7 756 305.3 785.2 296.3C814.3 287.3 843.7 303.7 872.8 312.7C902 321.7 931 323.3 945.5 324.2L960 325L960 237L945.5 234.2C931 231.3 902 225.7 872.8 222C843.7 218.3 814.3 216.7 785.2 225.7C756 234.7 727 254.3 698 246.2C669 238 640 202 611 209.3C582 216.7 553 267.3 523.8 265.7C494.7 264 465.3 210 436.2 192C407 174 378 192 349 207.2C320 222.3 291 234.7 262 244.5C233 254.3 204 261.7 174.8 261.7C145.7 261.7 116.3 254.3 87.2 244.5C58 234.7 29 222.3 14.5 216.2L0 210Z" fill="#d7dde6"></path><path d="M0 368L14.5 375.2C29 382.3 58 396.7 87.2 403.8C116.3 411 145.7 411 174.8 409.3C204 407.7 233 404.3 262 388.2C291 372 320 343 349 327.7C378 312.3 407 310.7 436.2 326.8C465.3 343 494.7 377 523.8 381.5C553 386 582 361 611 367.3C640 373.7 669 411.3 698 406.8C727 402.3 756 355.7 785.2 347.7C814.3 339.7 843.7 370.3 872.8 381.2C902 392 931 383 945.5 378.5L960 374L960 323L945.5 322.2C931 321.3 902 319.7 872.8 310.7C843.7 301.7 814.3 285.3 785.2 294.3C756 303.3 727 337.7 698 337.7C669 337.7 640 303.3 611 303.3C582 303.3 553 337.7 523.8 330.5C494.7 323.3 465.3 274.7 436.2 253.8C407 233 378 240 349 261.5C320 283 291 319 262 330.8C233 342.7 204 330.3 174.8 328.7C145.7 327 116.3 336 87.2 330.5C58 325 29 305 14.5 295L0 285Z" fill="#cdd5e0"></path><path d="M0 541L14.5 541C29 541 58 541 87.2 541C116.3 541 145.7 541 174.8 541C204 541 233 541 262 541C291 541 320 541 349 541C378 541 407 541 436.2 541C465.3 541 494.7 541 523.8 541C553 541 582 541 611 541C640 541 669 541 698 541C727 541 756 541 785.2 541C814.3 541 843.7 541 872.8 541C902 541 931 541 945.5 541L960 541L960 372L945.5 376.5C931 381 902 390 872.8 379.2C843.7 368.3 814.3 337.7 785.2 345.7C756 353.7 727 400.3 698 404.8C669 409.3 640 371.7 611 365.3C582 359 553 384 523.8 379.5C494.7 375 465.3 341 436.2 324.8C407 308.7 378 310.3 349 325.7C320 341 291 370 262 386.2C233 402.3 204 405.7 174.8 407.3C145.7 409 116.3 409 87.2 401.8C58 394.7 29 380.3 14.5 373.2L0 366Z" fill="#c4cddb"></path></svg>